<?xml version="1.0" encoding="UTF-8"?>
<svg width="68px" height="88px" viewBox="0 0 68 88" version="1.1" xmlns="http://www.w3.org/2000/svg" xmlns:xlink="http://www.w3.org/1999/xlink">
    <!-- Generator: Sketch 42 (36781) - http://www.bohemiancoding.com/sketch -->
    <title>download</title>
    <desc>Created with Sketch.</desc>
    <defs></defs>
    <g id="Page-1" stroke="none" stroke-width="1" fill="none" fill-rule="evenodd">
        <g id="download" fill="#000000">
            <path d="M8,80 L8,8 L32,8 L32,31.92 C32,34.129 33.697,36 35.906,36 L60,36 L60,80 L8,80 Z M59.991,28 L40,28 L40,8 L40.178,8 L59.991,28 Z M66.836,23.457 L44.677,1.179 C43.927,0.424 42.906,0 41.841,0 L4,0 C1.791,0 0,1.791 0,4 L0,84 C0,86.209 1.791,88 4,88 L64,88 C66.209,88 68,86.209 68,84 L68,26.278 C68,25.221 67.582,24.207 66.836,23.457 L66.836,23.457 Z" id="document-new-copy-2"></path>
            <path d="M31.393895,68.8666207 C30.1583498,70.1148871 30.1694808,72.12881 31.4185423,73.3643552 C32.0387002,73.9773574 32.8464955,74.2834609 33.6550859,74.2834609 C34.4748073,74.2834609 35.2937337,73.9686115 35.9154817,73.3397079 L48.3639576,60.7552743 C49.589962,59.5165487 49.589962,57.5217077 48.3639576,56.2821871 L35.9154817,43.6985486 C34.6807316,42.4494871 32.6660137,42.4399462 31.4185423,43.6739013 C30.1694808,44.9094465 30.1583498,46.9233693 31.393895,48.1716357 L38.5002678,55.3551306 L21.4180997,55.4465642 C19.6617809,55.4505395 18.2409834,56.8776976 18.2449588,58.6340164 C18.2497292,60.38795 19.6721169,61.8071574 21.4252554,61.8071574 L38.4668746,61.7165189 L31.393895,68.8666207 Z" id="enter-copy" transform="translate(33.764206, 58.519255) rotate(-270.000000) translate(-33.764206, -58.519255) "></path>
        </g>
    </g>
</svg>