<?xml version="1.0" encoding="UTF-8"?>
<svg width="74px" height="92px" viewBox="0 0 74 92" version="1.1" xmlns="http://www.w3.org/2000/svg" xmlns:xlink="http://www.w3.org/1999/xlink">
    <!-- Generator: Sketch 42 (36781) - http://www.bohemiancoding.com/sketch -->
    <title>duplicate</title>
    <desc>Created with Sketch.</desc>
    <defs></defs>
    <g id="Page-1" stroke="none" stroke-width="1" fill="none" fill-rule="evenodd">
        <path d="M54,7.011 L66.879,20 L54,20 L54,7.011 Z M73.37,18.028 L55.99,0.649 C55.419,0.074 54.766,0 53.954,0 L24.062,0 C22.382,0 21,0.858 21,2.533 L21,12.164 C21,13.839 22.321,15.197 24,15.197 C25.679,15.197 27,13.839 27,12.164 L27,6 L48,6 L48,22.893 C48,24.568 49.4,26 51.079,26 L68,26 L68,63 L63.857,63 C62.177,63 60.816,64.325 60.816,66 C60.816,67.675 62.177,69 63.857,69 L71.459,69 C73.138,69 74,67.516 74,65.841 L74,20.162 C74,19.363 73.934,18.596 73.37,18.028 L73.37,18.028 Z M8,84 L8,28 L27,28 L27,45.244 C27,47.198 28.844,49 30.804,49 L48,49 L48,84 L8,84 Z M46.886,42 L34,42 L34,29.08 L46.886,42 Z M36.968,21.853 C36.302,21.182 35.394,21 34.448,21 L4.555,21 C2.595,21 0,22.194 0,24.148 L0,87.456 C0,89.41 2.595,92 4.555,92 L51.952,92 C53.911,92 55,89.41 55,87.456 L55,41.778 C55,40.846 54.881,40.049 54.223,39.386 L36.968,21.853 Z" id="duplicate" fill="#000000"></path>
    </g>
</svg>