<?xml version="1.0" encoding="UTF-8"?>
<svg width="24px" height="16px" viewBox="0 0 24 16" version="1.1" xmlns="http://www.w3.org/2000/svg" xmlns:xlink="http://www.w3.org/1999/xlink">
    <!-- Generator: Sketch 43 (38999) - http://www.bohemiancoding.com/sketch -->
    <title>Shape</title>
    <desc>Created with Sketch.</desc>
    <defs></defs>
    <g id="Welcome" stroke="none" stroke-width="1" fill="none" fill-rule="evenodd">
        <g id="byp-confirmation-copy-2" transform="translate(-270.000000, -145.000000)" fill-rule="nonzero" fill="#C9C9C9">
            <g id="mail" transform="translate(270.000000, 145.000000)">
                <path d="M0.765333333,1.71466667 C1.416,2.064 10.4293333,6.90666667 10.7653333,7.08666667 C11.1013333,7.26666667 11.536,7.352 11.9733333,7.352 C12.4106667,7.352 12.8453333,7.26666667 13.1813333,7.08666667 C13.5173333,6.90666667 22.5306667,2.064 23.1813333,1.71466667 C23.8333333,1.364 24.4493333,0 23.2533333,0 L0.694666667,0 C-0.501333333,0 0.114666667,1.364 0.765333333,1.71466667 Z M23.484,4.652 C22.744,5.03733333 13.6346667,9.784 13.1813333,10.0213333 C12.728,10.2586667 12.4106667,10.2866667 11.9733333,10.2866667 C11.536,10.2866667 11.2186667,10.2586667 10.7653333,10.0213333 C10.312,9.784 1.25466667,5.036 0.514666667,4.65066667 C-0.00533333333,4.37866667 4.50084414e-13,4.69733333 4.50084414e-13,4.94266667 L4.50084414e-13,14.6666667 C4.50084414e-13,15.2266667 0.754666667,16 1.33333333,16 L22.6666667,16 C23.2453333,16 24,15.2266667 24,14.6666667 L24,4.944 C24,4.69866667 24.0053333,4.38 23.484,4.652 Z" id="Shape"></path>
            </g>
        </g>
    </g>
</svg>