<?xml version="1.0" encoding="UTF-8"?>
<svg width="22px" height="22px" viewBox="0 0 22 22" version="1.1" xmlns="http://www.w3.org/2000/svg" xmlns:xlink="http://www.w3.org/1999/xlink">
    <!-- Generator: Sketch 42 (36781) - http://www.bohemiancoding.com/sketch -->
    <title>isci</title>
    <desc>Created with Sketch.</desc>
    <defs></defs>
    <g id="Page-1" stroke="none" stroke-width="1" fill="none" fill-rule="evenodd">
        <g id="isci" fill="#000000">
            <path d="M0.001,5.56326627 L2.04009206,5.56326627 L2.04009206,16.1727337 L0.001,16.1727337 L0.001,5.56326627 Z M4.75888146,13.1949231 C5.08254849,13.5203685 5.44088875,13.7861449 5.83391299,13.9922604 C6.22693723,14.1983758 6.61301996,14.301432 6.99217276,14.301432 C7.41756371,14.301432 7.73429026,14.2092238 7.94236192,14.0248047 C8.15043358,13.8403857 8.25446784,13.5908813 8.25446784,13.276284 C8.25446784,13.1135613 8.2244135,12.9725371 8.16430391,12.8532071 C8.10419432,12.7338771 8.01634316,12.6281089 7.90074779,12.5358994 C7.78515243,12.4436899 7.64644007,12.3569057 7.48460656,12.2755444 L6.95055864,12.0070533 L5.7714918,11.4212544 C5.54030107,11.3127726 5.31604943,11.1717484 5.09873014,10.9981775 C4.88141085,10.8246066 4.68721355,10.6212063 4.51613241,10.3879704 C4.34505127,10.1547345 4.20865078,9.88353409 4.10692686,9.57436095 C4.00520294,9.2651878 3.95434174,8.91533923 3.95434174,8.52480473 C3.95434174,8.09087751 4.03294541,7.68136484 4.19015511,7.29625444 C4.3473648,6.91114403 4.56930458,6.57485548 4.85598108,6.2873787 C5.14265759,5.99990192 5.48250287,5.77480555 5.87552711,5.61208284 C6.26855136,5.44936013 6.70087154,5.368 7.17250063,5.368 C7.6996155,5.368 8.21978684,5.4873282 8.73303026,5.72598817 C9.24627369,5.96464814 9.69708885,6.3117847 10.0854893,6.76740828 L9.04513619,8.28072189 C8.74921206,8.00951738 8.45329236,7.80069304 8.15736822,7.6542426 C7.86144409,7.50779217 7.53315817,7.43456805 7.17250063,7.43456805 C6.82109072,7.43456805 6.54135413,7.51864018 6.33328247,7.68678698 C6.12521081,7.85493378 6.02117654,8.09087817 6.02117654,8.39462722 C6.02117654,8.55734993 6.05585463,8.69566215 6.12521185,8.80956805 C6.19456907,8.92347394 6.29166772,9.02653011 6.41651072,9.11873964 C6.54135371,9.21094918 6.68700169,9.29773332 6.85345902,9.37909467 C7.01991634,9.46045603 7.20024241,9.54995217 7.39444262,9.6475858 L8.55963808,10.2008402 C9.11449584,10.4611966 9.55143977,10.8191812 9.87048298,11.2748047 C10.1895262,11.7304283 10.3490454,12.3324933 10.3490454,13.0810178 C10.3490454,13.5257932 10.2727536,13.9461538 10.1201677,14.3421124 C9.96758183,14.738071 9.74564206,15.0852076 9.45434174,15.3835325 C9.16304142,15.6818575 8.80470116,15.9205139 8.37931021,16.0995089 C7.95391927,16.2785039 7.47304976,16.368 6.93668726,16.368 C6.34483899,16.368 5.75531147,16.2405358 5.16808701,15.9856036 C4.58086255,15.7306713 4.05606747,15.3482787 3.593686,14.8384142 L4.75888146,13.1949231 Z M11.4587554,10.9330888 C11.4587554,10.0543861 11.574349,9.27061686 11.8055397,8.5817574 C12.0367305,7.89289794 12.3488333,7.30981698 12.7418575,6.83249704 C13.1348817,6.3551771 13.5926325,5.99176851 14.1151236,5.74226036 C14.6376146,5.4927522 15.1901522,5.368 15.7727528,5.368 C16.3368582,5.368 16.8477821,5.50631223 17.3055397,5.78294083 C17.7632974,6.05956943 18.1447564,6.38229796 18.4499281,6.75113609 L17.3263468,8.23190533 C17.0951561,7.98239717 16.8616569,7.78713286 16.6258424,7.64610651 C16.3900278,7.50508016 16.114915,7.43456805 15.8004956,7.43456805 C15.4860762,7.43456805 15.1924684,7.51321618 14.9196633,7.67051479 C14.6468582,7.82781341 14.4087354,8.05290978 14.2052875,8.34581065 C14.0018397,8.63871152 13.8423205,8.99669611 13.7267251,9.41977515 C13.6111297,9.84285419 13.5533329,10.320167 13.5533329,10.8517278 C13.5533329,11.947394 13.752154,12.7962514 14.149802,13.3983254 C14.5474501,14.0003995 15.0791808,14.301432 15.7450101,14.301432 C16.1149153,14.301432 16.4385774,14.2146478 16.7160063,14.0410769 C16.9934352,13.867506 17.2431174,13.6396977 17.4650605,13.357645 L18.5886419,14.8058698 C18.2094891,15.3265825 17.7771689,15.7171111 17.2916683,15.9774675 C16.8061678,16.2378238 16.2813727,16.368 15.7172673,16.368 C15.1346667,16.368 14.584441,16.2513838 14.0665738,16.0181479 C13.5487065,15.784912 13.0955795,15.4404875 12.7071791,14.9848639 C12.3187786,14.5292403 12.0136115,13.9624314 11.7916683,13.2844201 C11.5697252,12.6064088 11.4587554,11.8226396 11.4587554,10.9330888 Z M19.9619079,5.56326627 L22.001,5.56326627 L22.001,16.1727337 L19.9619079,16.1727337 L19.9619079,5.56326627 Z" id="ISCI"></path>
        </g>
    </g>
</svg>