<?xml version="1.0" encoding="UTF-8"?>
<svg width="81px" height="91px" viewBox="0 0 81 91" version="1.1" xmlns="http://www.w3.org/2000/svg" xmlns:xlink="http://www.w3.org/1999/xlink">
    <!-- Generator: Sketch 42 (36781) - http://www.bohemiancoding.com/sketch -->
    <title>revise</title>
    <desc>Created with Sketch.</desc>
    <defs></defs>
    <g id="Page-1" stroke="none" stroke-width="1" fill="none" fill-rule="evenodd">
        <path d="M65,46.595 L65,87 C65,89.209 63.041,91 60.832,91 L4,91 C1.791,91 0,89.209 0,87 L0,10.822 C0,8.613 1.791,7 4,7 L45.574,7 C47.783,7 49.574,8.791 49.574,11 C49.574,13.209 47.783,15 45.574,15 L8,15 L8,83 L57,83 L57,46.595 C57,44.386 58.791,42.595 61,42.595 C63.209,42.595 65,44.386 65,46.595 L65,46.595 Z M34.4,50.182 L29.596,52.088 L31.52,47.167 L70.82,7.273 L73.785,10.278 L34.4,50.182 Z M80.135,8.171 L72.954,0.893 C72.39,0.322 71.621,0 70.818,0 L70.817,0 C70.014,0 69.245,0.323 68.681,0.894 L26.813,43.395 C26.528,43.685 26.304,44.029 26.156,44.408 L21.497,56.328 C21.062,57.44 21.328,58.704 22.174,59.547 C22.748,60.117 23.512,60.42 24.291,60.42 C24.663,60.42 25.038,60.351 25.397,60.209 L37.199,55.527 C37.585,55.373 37.936,55.141 38.228,54.845 L80.135,12.386 C81.288,11.217 81.288,9.339 80.135,8.171 L80.135,8.171 Z" id="revise" fill="#000000"></path>
    </g>
</svg>