<?xml version="1.0" encoding="UTF-8"?>
<svg width="119px" height="74px" viewBox="0 0 119 74" version="1.1" xmlns="http://www.w3.org/2000/svg" xmlns:xlink="http://www.w3.org/1999/xlink">
    <!-- Generator: Sketch 42 (36781) - http://www.bohemiancoding.com/sketch -->
    <title>Group</title>
    <desc>Created with Sketch.</desc>
    <defs></defs>
    <g id="Page-1" stroke="none" stroke-width="1" fill="none" fill-rule="evenodd">
        <g id="Group" fill="#000000">
            <path d="M118.035895,34.1736284 C100.06241,11.507548 80.6549692,0 60.3011719,0 C52.2378633,0 44.0758809,1.84377314 36.0122687,5.45472905 C29.6731686,8.31877314 23.3829498,12.2796786 17.3344057,17.2356361 C7.10877747,25.6297543 1.08512947,33.9983423 0.841936827,34.3473578 C-0.323626916,35.9918714 -0.275049109,38.2332296 0.963077732,39.827617 C18.9128808,62.5179822 38.3440034,74 58.6978007,74 C66.7626274,74 74.9230916,72.1574722 82.9867039,68.545271 C89.3270185,65.6812269 95.6175408,61.7200101 101.665781,56.7640525 C111.89141,48.3699344 117.915058,40.0013463 118.157036,39.6523309 C119.324118,38.0081286 119.275236,35.7667704 118.035895,34.1736284 Z M96.0064668,49.9145069 C87.5539285,56.8138674 74.2436096,65.0330108 58.6978007,65.0330108 C41.9150794,65.0330108 25.5437514,55.5930916 9.99915695,36.9623275 C12.4529434,33.9983423 16.945176,29.0423847 22.968824,24.1107119 C31.4213624,17.2113514 44.7316813,8.99127398 60.2774902,8.99127398 C77.0602115,8.99127398 93.4315395,18.4311932 108.976438,37.0619573 C106.523562,40.0259424 102.030115,45.0074302 96.0064668,49.9145069 Z" id="Fill-1"></path>
            <path d="M58,57.2000002 C46.2915632,57.2000002 36.7999998,47.7084368 36.7999998,36 C36.7999998,24.2915632 46.2915632,14.7999998 58,14.7999998 C69.7084368,14.7999998 79.2000002,24.2915632 79.2000002,36 C79.2000002,47.7084368 69.7084368,57.2000002 58,57.2000002 Z M58,48.7999998 C65.0692447,48.7999998 70.7999998,43.0692447 70.7999998,36 C70.7999998,28.9307553 65.0692447,23.2000002 58,23.2000002 C50.9307553,23.2000002 45.2000002,28.9307553 45.2000002,36 C45.2000002,43.0692447 50.9307553,48.7999998 58,48.7999998 Z" id="Oval" fill-rule="nonzero"></path>
        </g>
    </g>
</svg>